<?xml version="1.0" encoding="utf-8"?>
<!-- Generator: Adobe Illustrator 24.0.1, SVG Export Plug-In . SVG Version: 6.00 Build 0)  -->
<svg version="1.1" id="Слой_1" xmlns="http://www.w3.org/2000/svg" xmlns:xlink="http://www.w3.org/1999/xlink" x="0px" y="0px"
	 viewBox="0 0 24 24" style="enable-background:new 0 0 24 24;" xml:space="preserve">
<style type="text/css">
	.st0{fill:#FFFFFF;}
	.st1{fill:#23292F;}
</style>
<g id="bg_1_">
	<circle id="bg_border_1px" class="st0" cx="12" cy="12" r="12"/>
	<path id="bg_white_circle" class="st0" d="M12,0.4C5.6,0.4,0.4,5.6,0.4,12c0,6.4,5.2,11.6,11.6,11.6c6.4,0,11.6-5.2,11.6-11.6
		C23.6,5.6,18.4,0.4,12,0.4z"/>
</g>
<g>
	<g id="Canvas_1_">
		<g id="xrp-symbol-black_1_">
			<path id="Vector_1_" class="st1" d="M18.3,4.6h2.6l-5.4,5.3c-1.9,1.9-5.1,1.9-7,0L3.1,4.6h2.6l4.1,4c1.2,1.2,3.2,1.2,4.5,0
				L18.3,4.6z"/>
			<path id="Vector_2_1_" class="st1" d="M5.6,19.4H3.1L8.5,14c1.9-1.9,5.1-1.9,7,0l5.4,5.3h-2.6l-4.1-4.1c-1.2-1.2-3.2-1.2-4.5,0
				L5.6,19.4z"/>
		</g>
	</g>
</g>
</svg>
